<svg version="1.2" xmlns="http://www.w3.org/2000/svg" viewBox="0 0 24 24" width="100" height="100">
	<title>file-svg</title>
	<style>
		.s0 { opacity: 0;fill: #ffffff } 
		.s1 { fill: #ffc107 } 
	</style>
	<path class="s0" d="m0 0h24v24h-24z"/>
	<path fill-rule="evenodd" class="s1" d="m19.9 7.5q0 0.1 0 0.1 0.1 0.1 0.1 0.2 0 0.1 0 0.2v11.5q0 0.5-0.2 1-0.2 0.4-0.6 0.8-0.3 0.3-0.8 0.5-0.5 0.2-1 0.2h-10.8q-0.5 0-1-0.2-0.5-0.2-0.8-0.5-0.4-0.4-0.6-0.8-0.2-0.5-0.2-1v-15q0-0.5 0.2-1 0.2-0.4 0.6-0.8 0.3-0.3 0.8-0.5 0.5-0.2 1-0.2h8q0.1 0 0.2 0 0.1 0 0.2 0.1 0.1 0 0.1 0.1 0.1 0.1 0.2 0.1l4.4 5q0.1 0.1 0.2 0.2zm-5.9-0.3q0 0.1 0 0.3 0.1 0.1 0.2 0.2 0.1 0.1 0.2 0.2 0.2 0.1 0.3 0.1h3l-3.7-4z"/>
</svg>